<?xml version="1.0" standalone="no"?>
<!DOCTYPE svg PUBLIC "-//W3C//DTD SVG 20010904//EN"
 "http://www.w3.org/TR/2001/REC-SVG-20010904/DTD/svg10.dtd">
<svg version="1.0" xmlns="http://www.w3.org/2000/svg"
 width="320.000000pt" height="320.000000pt" viewBox="0 0 320.000000 320.000000"
 preserveAspectRatio="xMidYMid meet">
<metadata>
Created by potrace 1.16, written by Peter Selinger 2001-2019
</metadata>
<g transform="translate(0.000000,320.000000) scale(0.100000,-0.100000)"
fill="#000000" stroke="none">
<path d="M721 2755 c-84 -24 -149 -64 -234 -145 -234 -222 -392 -623 -447
-1132 -51 -478 89 -900 337 -1016 189 -88 368 21 641 390 l86 118 507 0 506 0
36 -57 c109 -177 277 -366 379 -426 292 -171 566 81 627 578 43 355 -45 831
-219 1184 -116 233 -257 395 -409 468 -65 32 -88 38 -162 41 -111 6 -145 -11
-261 -129 l-88 -89 -332 0 c-297 0 -337 -2 -368 -18 -69 -35 -77 -145 -12
-188 25 -18 53 -19 407 -19 431 0 414 -3 482 82 21 26 59 69 84 95 41 42 51
48 88 48 57 0 106 -27 173 -97 168 -177 316 -525 373 -873 57 -352 5 -705
-125 -853 -109 -124 -234 -40 -466 313 -45 69 -92 134 -104 145 -21 19 -38 20
-606 23 -653 3 -636 4 -676 -65 -135 -231 -326 -454 -401 -468 -103 -20 -199
103 -250 319 -18 78 -21 121 -21 306 0 192 3 230 28 355 69 359 183 625 337
790 67 72 126 105 185 105 48 0 59 -8 112 -81 22 -31 54 -62 71 -69 67 -27
138 14 148 87 4 32 -2 47 -35 98 -103 158 -242 221 -391 180z"/>
<path d="M2406 2146 c-134 -50 -178 -222 -83 -324 62 -67 186 -83 259 -33 62
43 83 85 83 167 0 64 -3 77 -30 115 -52 73 -148 105 -229 75z"/>
<path d="M754 2051 c-39 -24 -54 -65 -54 -147 l0 -64 -81 0 c-76 0 -82 -2
-110 -29 -41 -42 -41 -107 0 -153 28 -31 34 -33 109 -36 l80 -4 4 -80 c3 -75
5 -81 36 -109 25 -22 42 -29 75 -29 79 0 117 52 117 159 l0 59 81 4 c77 3 82
5 110 36 33 37 38 85 14 132 -21 42 -43 50 -129 50 l-76 0 0 65 c0 36 -6 81
-14 100 -26 60 -102 82 -162 46z"/>
<path d="M2096 1765 c-86 -30 -136 -100 -136 -187 0 -65 18 -105 68 -150 45
-41 88 -53 163 -46 124 12 203 157 150 273 -23 51 -79 101 -128 114 -49 14
-69 13 -117 -4z"/>
</g>
</svg>
