<?xml version="1.0" standalone="no"?>
<!DOCTYPE svg PUBLIC "-//W3C//DTD SVG 20010904//EN"
 "http://www.w3.org/TR/2001/REC-SVG-20010904/DTD/svg10.dtd">
<svg version="1.0" xmlns="http://www.w3.org/2000/svg"
 width="358.000000pt" height="356.000000pt" viewBox="0 0 358.000000 356.000000"
 preserveAspectRatio="xMidYMid meet">

<g transform="translate(0.000000,356.000000) scale(0.100000,-0.100000)"
fill="#000000" stroke="none">
<path d="M1732 3508 c-9 -9 -12 -125 -12 -460 l0 -448 -60 0 -60 0 0 248 c0
260 -2 272 -45 272 -49 -1 -50 -2 -53 -270 l-4 -250 -59 0 -59 0 0 100 0 101
-43 47 c-24 26 -113 122 -198 213 l-155 166 4 74 c3 65 1 78 -20 109 -33 48
-92 80 -151 80 -54 0 -90 -16 -129 -57 -94 -99 -43 -262 91 -292 38 -8 95 -2
118 12 6 4 94 -83 197 -193 l186 -199 0 -80 0 -81 -52 0 c-57 0 -140 -33 -170
-66 -38 -44 -58 -107 -58 -191 l0 -83 -218 0 -217 0 -20 36 c-24 46 -77 81
-132 90 -62 10 -140 -30 -173 -88 -53 -94 -18 -208 77 -250 89 -39 191 -5 230
78 l17 34 218 0 218 0 0 -60 0 -60 -133 0 c-122 0 -136 -2 -152 -20 -15 -16
-17 -26 -9 -48 l9 -27 143 -3 142 -3 0 -59 0 -60 -444 0 c-482 0 -476 1 -476
-54 0 -46 -1 -46 472 -46 l448 0 0 -60 0 -60 -248 0 c-260 0 -272 -2 -272 -44
1 -50 2 -51 270 -54 l250 -3 0 -59 0 -60 -100 0 -101 0 -47 -43 c-26 -24 -123
-114 -215 -200 -152 -142 -172 -156 -195 -150 -112 29 -219 -39 -230 -147 -6
-65 2 -93 40 -135 41 -48 77 -65 134 -65 121 0 208 129 165 243 -9 24 3 38
189 211 l199 186 80 0 81 0 0 -52 c0 -100 60 -187 149 -217 19 -6 69 -11 112
-11 l79 0 0 -218 0 -217 -36 -20 c-148 -79 -100 -308 68 -331 91 -13 182 60
195 154 10 73 -34 156 -97 182 l-30 12 0 219 0 219 60 0 60 0 0 -133 c0 -117
2 -136 18 -150 25 -23 59 -21 72 2 5 11 10 78 10 150 l0 131 60 0 60 0 0 -441
c0 -284 4 -447 10 -460 12 -22 59 -26 78 -7 9 9 12 125 12 460 l0 448 60 0 60
0 0 -248 c0 -260 2 -272 45 -272 49 1 50 2 53 270 l4 250 59 0 59 0 0 -100 0
-101 43 -47 c24 -26 113 -122 198 -213 l155 -167 -4 -69 c-5 -82 10 -118 63
-159 38 -28 111 -42 159 -30 36 9 96 65 112 103 49 117 -37 243 -165 243 -29
0 -60 -4 -70 -10 -15 -8 -47 22 -205 190 l-186 199 0 80 0 81 49 0 c147 0 231
93 231 258 l0 82 218 0 217 -1 27 -45 c93 -152 324 -78 322 103 -2 128 -139
211 -253 153 -40 -20 -76 -58 -86 -91 -6 -18 -18 -19 -226 -19 l-219 0 0 60 0
60 133 0 c117 0 136 2 150 18 21 23 22 46 1 66 -12 13 -41 16 -150 16 l-134 0
0 60 0 60 444 0 c482 0 476 -1 476 54 0 46 1 46 -472 46 l-448 0 0 55 0 55
238 0 c256 0 282 5 282 53 -1 52 -1 52 -270 55 l-250 4 0 59 0 59 101 0 100 0
57 52 c31 29 120 111 197 183 194 180 173 166 221 154 109 -28 214 59 214 176
0 53 -16 88 -57 127 -112 107 -293 26 -293 -131 0 -29 4 -61 10 -71 8 -15 -20
-46 -190 -204 l-199 -186 -80 0 -81 0 0 53 c0 56 -33 139 -66 169 -44 38 -107
58 -191 58 l-83 0 0 219 0 219 31 12 c42 18 87 82 95 136 5 36 1 54 -20 97
-33 67 -87 101 -162 101 -128 0 -212 -140 -154 -254 20 -38 76 -90 98 -90 9 0
12 -60 12 -220 l0 -220 -60 0 -60 0 0 128 c0 136 -10 172 -50 172 -43 0 -50
-24 -50 -166 l0 -134 -60 0 -60 0 0 444 c0 391 -2 446 -16 460 -18 19 -55 21
-72 4z m-868 -139 c18 -14 26 -30 26 -52 0 -70 -87 -105 -129 -51 -28 35 -26
69 4 99 30 30 64 32 99 4z m1400 -111 c9 -12 16 -37 16 -54 0 -75 -108 -96
-139 -27 -16 34 -14 47 10 77 27 35 90 37 113 4z m1101 -423 c69 -68 -31 -170
-102 -103 -33 30 -31 80 3 107 35 28 69 26 99 -4z m-896 -380 l31 -36 0 -621
0 -620 -39 -39 -39 -39 -622 0 -622 0 -39 39 -39 39 0 620 0 621 31 36 31 35
638 0 638 0 31 -35z m-2016 -206 c17 -23 18 -32 8 -61 -27 -81 -141 -66 -141
19 0 72 89 100 133 42z m2809 -806 c22 -20 23 -71 2 -101 -11 -16 -25 -22 -53
-22 -42 0 -65 19 -76 63 -6 23 -2 34 21 58 24 25 35 29 58 25 16 -4 38 -14 48
-23z m-2925 -575 c47 -44 13 -128 -52 -128 -32 0 -75 44 -75 76 0 64 80 97
127 52z m1086 -409 c24 -11 47 -47 47 -73 0 -7 -9 -25 -21 -40 -24 -30 -72
-35 -107 -10 -42 29 -25 107 28 127 23 8 27 8 53 -4z m1416 -125 c28 -35 26
-69 -4 -99 -68 -69 -170 31 -103 102 30 33 80 31 107 -3z"/>
<path d="M1160 2438 c-19 -21 -20 -34 -20 -255 0 -135 4 -233 9 -233 5 0 11
100 13 231 3 215 4 232 22 245 16 11 66 14 243 14 142 0 223 4 223 10 0 6 -85
10 -235 10 -228 0 -235 -1 -255 -22z"/>
<path d="M1950 2450 c0 -6 82 -10 225 -10 212 0 226 -1 245 -20 19 -19 20 -33
20 -250 0 -147 4 -230 10 -230 6 0 10 87 10 240 0 227 -1 241 -20 260 -19 19
-33 20 -255 20 -150 0 -235 -4 -235 -10z"/>
<path d="M1610 2120 c0 -5 11 -10 25 -10 22 0 25 -4 25 -35 0 -19 5 -35 10
-35 6 0 10 16 10 35 0 28 4 35 20 35 11 0 20 5 20 10 0 6 -25 10 -55 10 -30 0
-55 -4 -55 -10z"/>
<path d="M1740 2085 c0 -33 4 -45 15 -45 8 0 15 7 15 15 0 10 10 15 30 15 20
0 30 -5 30 -15 0 -8 7 -15 15 -15 11 0 15 12 15 45 0 33 -4 45 -15 45 -8 0
-15 -7 -15 -15 0 -10 -10 -15 -30 -15 -20 0 -30 5 -30 15 0 8 -7 15 -15 15
-11 0 -15 -12 -15 -45z"/>
<path d="M1880 2085 l0 -45 55 0 c30 0 55 5 55 10 0 6 -18 10 -40 10 -22 0
-40 5 -40 10 0 6 16 10 35 10 47 0 45 18 -2 23 l-38 4 43 1 c62 3 51 22 -13
22 l-55 0 0 -45z"/>
<path d="M1200 1801 l0 -111 119 0 c156 0 166 7 165 110 -1 101 -5 104 -159
108 l-125 4 0 -111z m215 -1 l0 -45 -77 -3 -78 -3 0 51 0 51 78 -3 77 -3 0
-45z"/>
<path d="M1573 1800 l-62 -110 39 0 c30 0 40 5 45 20 6 18 15 20 80 20 64 0
76 -3 85 -20 8 -14 21 -20 46 -20 l35 0 -58 110 -58 110 -45 0 -45 0 -62 -110z
m126 24 c12 -19 21 -37 21 -40 0 -2 -18 -4 -41 -4 -29 0 -40 4 -36 13 9 21 32
67 34 67 0 0 10 -16 22 -36z"/>
<path d="M1830 1880 c0 -29 1 -30 50 -30 l50 0 0 -80 0 -80 30 0 30 0 0 79 0
80 48 3 c43 3 47 5 50 31 l3 27 -130 0 -131 0 0 -30z"/>
<path d="M2138 1806 c-32 -56 -58 -106 -58 -109 0 -4 16 -7 35 -7 24 0 37 6
45 20 9 17 21 20 80 20 59 0 71 -3 80 -20 8 -14 21 -20 46 -20 20 0 34 4 32 9
-1 5 -28 54 -58 110 l-55 101 -45 0 -45 0 -57 -104z m123 17 c7 -16 15 -31 17
-35 2 -5 -15 -8 -37 -8 -47 0 -47 1 -24 41 21 36 26 36 44 2z"/>
<path d="M1140 1418 c1 -186 4 -237 15 -252 21 -28 80 -35 298 -36 169 0 197
2 197 15 0 13 -31 15 -223 15 -177 0 -227 3 -243 14 -18 13 -19 30 -22 245 -2
131 -8 231 -13 231 -5 0 -9 -98 -9 -232z"/>
<path d="M2440 1425 c0 -212 -1 -226 -20 -245 -19 -19 -33 -20 -245 -20 -200
0 -225 -2 -225 -16 0 -14 25 -16 236 -13 234 4 236 4 255 28 17 21 19 42 19
257 0 149 -4 234 -10 234 -6 0 -10 -82 -10 -225z"/>
<path d="M1207 1554 c-14 -14 -7 -82 9 -88 46 -18 94 -2 94 30 0 20 -5 24 -30
24 -16 0 -30 -4 -30 -10 0 -5 8 -10 17 -10 11 0 14 -3 7 -10 -5 -5 -20 -7 -32
-3 -16 4 -22 12 -20 27 3 18 9 21 46 19 30 -1 42 2 39 10 -4 13 -88 22 -100
11z"/>
<path d="M1332 1513 l3 -48 49 0 c64 0 77 24 14 27 l-43 1 38 4 c47 5 49 23 2
23 -19 0 -35 5 -35 10 0 6 18 10 40 10 22 0 40 5 40 10 0 6 -25 10 -56 10
l-55 0 3 -47z"/>
<path d="M1460 1510 c0 -27 5 -50 10 -50 6 0 10 14 10 30 0 17 4 30 9 30 5 0
19 -13 31 -30 12 -16 30 -30 41 -30 16 0 19 7 19 50 0 58 -17 68 -22 13 l-3
-37 -25 37 c-16 24 -33 37 -47 37 -21 0 -23 -5 -23 -50z"/>
<path d="M1610 1510 l0 -50 50 0 c37 0 50 4 50 14 0 10 -13 16 -37 19 l-38 4
38 1 c45 2 41 22 -4 22 -16 0 -29 5 -29 10 0 6 16 10 35 10 19 0 35 5 35 10 0
6 -22 10 -50 10 l-50 0 0 -50z"/>
<path d="M1730 1510 c0 -38 4 -50 15 -50 8 0 15 7 15 15 0 21 47 19 58 -1 20
-35 30 -1 23 74 -1 8 -19 12 -56 12 l-55 0 0 -50z m85 10 c-3 -5 -17 -10 -31
-10 -13 0 -24 5 -24 10 0 6 14 10 31 10 17 0 28 -4 24 -10z"/>
<path d="M1886 1513 c-28 -50 -27 -64 4 -45 25 15 63 15 78 0 23 -23 25 3 4
47 -29 60 -52 59 -86 -2z m58 2 c4 -10 -1 -15 -14 -15 -13 0 -18 5 -14 15 4 8
10 15 14 15 4 0 10 -7 14 -15z"/>
<path d="M2010 1510 l0 -50 45 0 c33 0 45 4 45 15 0 10 -10 15 -30 15 -28 0
-30 3 -30 35 0 24 -5 35 -15 35 -11 0 -15 -12 -15 -50z"/>
<path d="M2120 1509 c0 -66 24 -62 28 4 2 37 0 47 -12 47 -12 0 -16 -12 -16
-51z"/>
<path d="M2174 1546 c-11 -29 4 -46 41 -46 22 0 34 -4 30 -10 -4 -6 -21 -8
-41 -4 -21 4 -34 2 -34 -4 0 -16 38 -25 76 -17 29 5 35 10 32 28 -2 17 -11 23
-40 25 -21 2 -38 8 -38 14 0 7 14 8 41 4 31 -5 40 -3 37 6 -7 20 -97 23 -104
4z"/>
<path d="M2300 1545 c0 -8 9 -15 20 -15 16 0 20 -7 20 -35 0 -19 5 -35 10 -35
6 0 10 15 10 34 0 28 4 35 22 38 12 2 23 9 26 16 3 8 -12 12 -52 12 -43 0 -56
-3 -56 -15z"/>
</g>
</svg>
